<svg xmlns="http://www.w3.org/2000/svg" width="62.052" height="51.742" viewBox="0 0 62.052 51.742">
  <path id="Path_985" data-name="Path 985" d="M60.992-21.824H23.559a2.773,2.773,0,0,1-2.023-.867,2.773,2.773,0,0,1-.867-2.023,2.773,2.773,0,0,1,.867-2.023,2.773,2.773,0,0,1,2.023-.867h37a1.228,1.228,0,0,0,1.3-.867l6.07-24.715a1.389,1.389,0,0,0-.145-1.012,1.387,1.387,0,0,0-1.012-.434H18.355L16.621-62q-.145-.867-1.3-.867H7.227q-1.3,0-1.3,1.156a1.15,1.15,0,0,0,1.3,1.3h7.227l1.734,7.227,5.926,23.414a9.346,9.346,0,0,0-2.312,1.3,5.138,5.138,0,0,0-1.59,3.758,5.208,5.208,0,0,0,2.168,4.191.416.416,0,0,0-.289.145.416.416,0,0,1-.289.145,5.138,5.138,0,0,0-1.59,3.758,5.07,5.07,0,0,0,1.59,3.83,5.261,5.261,0,0,0,3.758,1.518,5.138,5.138,0,0,0,3.758-1.59,5.138,5.138,0,0,0,1.59-3.758,6.818,6.818,0,0,0-.867-2.891H56.656a5.016,5.016,0,0,0-1.012,2.891,5.07,5.07,0,0,0,1.59,3.83,5.261,5.261,0,0,0,3.758,1.518,5.138,5.138,0,0,0,3.758-1.59,5.138,5.138,0,0,0,1.59-3.758,5.138,5.138,0,0,0-1.59-3.758A5.138,5.138,0,0,0,60.992-21.824Zm4.191-30.5L59.691-30.062H24.57L18.934-52.32ZM26.449-16.477a2.489,2.489,0,0,1-.867,2.023,2.489,2.489,0,0,1-2.023.867,2.773,2.773,0,0,1-2.023-.867,2.773,2.773,0,0,1-.867-2.023,2.773,2.773,0,0,1,.867-2.023,2.773,2.773,0,0,1,2.023-.867,2.773,2.773,0,0,1,2.023.867A2.773,2.773,0,0,1,26.449-16.477Zm36.566,2.023a2.773,2.773,0,0,1-2.023.867,2.773,2.773,0,0,1-2.023-.867,2.773,2.773,0,0,1-.867-2.023,2.773,2.773,0,0,1,.867-2.023,2.773,2.773,0,0,1,2.023-.867,2.773,2.773,0,0,1,2.023.867,2.773,2.773,0,0,1,.867,2.023A2.489,2.489,0,0,1,63.016-14.453Z" transform="translate(-5.926 62.871)" fill="#fff"/>
</svg>
