<svg xmlns="http://www.w3.org/2000/svg" width="69.544" height="52.52" viewBox="0 0 69.544 52.52">
  <path id="Path_983" data-name="Path 983" d="M20.508-40.742q.82-1.23-.547-2.051-1.094-.82-1.914.41l-5.879,9.023A23.758,23.758,0,0,1,15.586-47.3,22.132,22.132,0,0,1,30.078-57.7a22.392,22.392,0,0,1,12.373.479A24.056,24.056,0,0,1,52.91-50.449q1.094,1.094,2.051.137a1.2,1.2,0,0,0,.137-2.051A25.483,25.483,0,0,0,43.408-60.02a26.134,26.134,0,0,0-14.014-.547,25.361,25.361,0,0,0-16.27,11.758A25.561,25.561,0,0,0,9.3-33.906L2.871-41.289Q1.777-42.383.82-41.426-.273-40.332.684-39.375L10.254-28.3l.137.137q.273,0,.273.137l.137.137h.82q.273,0,.273-.137h.273q.273-.273.273-.41h.137ZM69.453-26.523l-8.2-12.031v-.137q-.273-.273-.41-.273L60.7-39.1h-.137a.394.394,0,0,0-.273-.137h-.41l-.273.137h-.273l-.41.41-9.3,11.211q-.957.957.137,2.051,1.367.82,2.051-.273l6.973-8.2A23.2,23.2,0,0,1,53.457-20.1,22.338,22.338,0,0,1,40.879-12.3Q28.437-9.3,19-18.457a1.2,1.2,0,0,0-2.051.137,1.337,1.337,0,0,0,0,2.051A25.686,25.686,0,0,0,35.41-8.75a31.683,31.683,0,0,0,6.152-.684,25.935,25.935,0,0,0,13.877-8.545A25.721,25.721,0,0,0,61.66-32.949l5.332,8.066a1.343,1.343,0,0,0,1.23.684,2.1,2.1,0,0,0,.82-.273Q70.273-25.156,69.453-26.523Z" transform="translate(-0.237 61.27)" fill="#fff"/>
</svg>
