<svg xmlns="http://www.w3.org/2000/svg" width="65.352" height="46.758" viewBox="0 0 65.352 46.758">
  <path id="Path_984" data-name="Path 984" d="M67.676-34.727V-20.1A.967.967,0,0,1,66.582-19H62.891A.967.967,0,0,1,61.8-20.1a.967.967,0,0,1,1.094-1.094h2.6V-33.77h-9.98a.967.967,0,0,1-1.094-1.094V-48.672H45.527v20.234q0,1.094-1.23,1.094A.967.967,0,0,1,43.2-28.437V-56.191H30.078l-21.055,35H10.8q1.23,0,1.23,1.094T10.8-19H7.109a.979.979,0,0,1-.957-.547,1.147,1.147,0,0,1,0-1.094L28.438-57.832a1.183,1.183,0,0,1,.957-.547H44.3q1.23,0,1.23,1.094V-51H66.582A.967.967,0,0,1,67.676-49.9v15.176ZM65.488-48.672H56.6v12.578h8.887Zm-47.168,0H3.418a.967.967,0,0,1-1.094-1.094.967.967,0,0,1,1.094-1.094h14.9a.967.967,0,0,1,1.094,1.094A.967.967,0,0,1,18.32-48.672Zm-14.9,5.2H13.809A.967.967,0,0,1,14.9-42.383a.967.967,0,0,1-1.094,1.094H3.418a.967.967,0,0,1-1.094-1.094A.967.967,0,0,1,3.418-43.477Zm0,7.383H9.3q1.23,0,1.23,1.094T9.3-33.906H3.418A.967.967,0,0,1,2.324-35,.967.967,0,0,1,3.418-36.094Zm12.51,9.912a8.3,8.3,0,0,1,6.084-2.529,8.072,8.072,0,0,1,6.016,2.529A8.411,8.411,0,0,1,30.488-20.1a8.139,8.139,0,0,1-2.529,5.947,8.139,8.139,0,0,1-5.947,2.529,8.411,8.411,0,0,1-6.084-2.461A8.072,8.072,0,0,1,13.4-20.1,8.3,8.3,0,0,1,15.928-26.182Zm1.641,10.527a6.057,6.057,0,0,0,4.443,1.846,6.057,6.057,0,0,0,4.443-1.846A6.057,6.057,0,0,0,28.3-20.1a6.057,6.057,0,0,0-1.846-4.443,6.057,6.057,0,0,0-4.443-1.846,6.057,6.057,0,0,0-4.443,1.846A6.057,6.057,0,0,0,15.723-20.1,6.057,6.057,0,0,0,17.568-15.654Zm15.518-5.537h7.52A.967.967,0,0,1,41.7-20.1.967.967,0,0,1,40.605-19h-7.52A.967.967,0,0,1,31.992-20.1.967.967,0,0,1,33.086-21.191Zm12.578-4.99a8.072,8.072,0,0,1,6.016-2.529,8.3,8.3,0,0,1,6.084,2.529A8.3,8.3,0,0,1,60.293-20.1a8.072,8.072,0,0,1-2.529,6.016,8.411,8.411,0,0,1-6.084,2.461,8.072,8.072,0,0,1-6.016-2.529A8.251,8.251,0,0,1,43.2-20.1,8.411,8.411,0,0,1,45.664-26.182Zm1.572,10.527a6.057,6.057,0,0,0,4.443,1.846,6.286,6.286,0,0,0,4.512-1.846A5.951,5.951,0,0,0,58.105-20.1a6.057,6.057,0,0,0-1.846-4.443,6.219,6.219,0,0,0-4.58-1.846,6.057,6.057,0,0,0-4.443,1.846A6.057,6.057,0,0,0,45.391-20.1,6.057,6.057,0,0,0,47.236-15.654Z" transform="translate(-2.324 58.379)" fill="#fff"/>
</svg>
