<svg xmlns="http://www.w3.org/2000/svg" width="61.797" height="39.375" viewBox="0 0 61.797 39.375">
  <path id="Path_982" data-name="Path 982" d="M60.977-15.312H8.887A5.285,5.285,0,0,1,5.469-16.68,5.285,5.285,0,0,1,4.1-20.1V-49.9a4.475,4.475,0,0,1,1.367-3.281,5.006,5.006,0,0,1,3.281-1.5h52.5a5.006,5.006,0,0,1,3.281,1.5A4.475,4.475,0,0,1,65.9-49.9v29.8a4.525,4.525,0,0,1-1.436,3.418A4.869,4.869,0,0,1,60.977-15.312ZM6.426-36.094H41.7l4.512-9.023H6.426Zm37.871,0H47.3l4.512-9.023H48.672ZM63.711-49.9a2.4,2.4,0,0,0-2.461-2.6H8.75a2.347,2.347,0,0,0-2.324,2.6v2.6H63.711Zm0,4.785H54.277l-4.512,9.023H63.711Zm0,11.211H6.426V-20.1a1.561,1.561,0,0,0,.684,1.777,2.482,2.482,0,0,0,1.777.82h52.09a2.521,2.521,0,0,0,2.734-2.6Zm-32.4,9.3H12.715A.967.967,0,0,1,11.621-25.7.967.967,0,0,1,12.715-26.8H31.309A.967.967,0,0,1,32.4-25.7.967.967,0,0,1,31.309-24.609Z" transform="translate(-4.102 54.688)" fill="#fff"/>
</svg>
